HIERARCHY
ROOT Hips
{
  OFFSET 267.745 86.9975 -272.335
  CHANNELS 6 Xposition Yposition Zposition Zrotation Xrotation Yrotation
  JOINT LeftUpLeg
  {
    OFFSET 8.64259 1.95398 -2.38835
    CHANNELS 3 Zrotation Xrotation Yrotation
    JOINT LeftLeg
    {
      OFFSET 43.7702 0 0
      CHANNELS 3 Zrotation Xrotation Yrotation
      JOINT LeftFoot
      {
        OFFSET 40.6238 0 0
        CHANNELS 3 Zrotation Xrotation Yrotation
        JOINT LeftToeBase
        {
          OFFSET 12.7242 0 0
          CHANNELS 3 Zrotation Xrotation Yrotation
          End Site
          {
            OFFSET 0 0 0
          }
        }
      }
    }
  }
  JOINT RightUpLeg
  {
    OFFSET -8.2249 1.95398 -2.59336
    CHANNELS 3 Zrotation Xrotation Yrotation
    JOINT RightLeg
    {
      OFFSET 43.5653 0 0
      CHANNELS 3 Zrotation Xrotation Yrotation
      JOINT RightFoot
      {
        OFFSET 40.6238 0 0
        CHANNELS 3 Zrotation Xrotation Yrotation
        JOINT RightToeBase
        {
          OFFSET 12.7242 0 0
          CHANNELS 3 Zrotation Xrotation Yrotation
          End Site
          {
            OFFSET 0 0 0
          }
        }
      }
    }
  }
  JOINT Spine
  {
    OFFSET 0.165834 0.87714 6.61349
    CHANNELS 3 Zrotation Xrotation Yrotation
    JOINT Spine1
    {
      OFFSET 7.38963 1.71661e-005 0
      CHANNELS 3 Zrotation Xrotation Yrotation
      JOINT Spine2
      {
        OFFSET 11.9445 1.14441e-005 0
        CHANNELS 3 Zrotation Xrotation Yrotation
        JOINT Spine3
        {
          OFFSET 14.7254 4.19617e-005 0
          CHANNELS 3 Zrotation Xrotation Yrotation
          JOINT Spine4
          {
            OFFSET 10.9679 0 0
            CHANNELS 3 Zrotation Xrotation Yrotation
            JOINT RightShoulder
            {
              OFFSET 2.46616 -1.6653 3.69651
              CHANNELS 3 Zrotation Xrotation Yrotation
              JOINT RightArm
              {
                OFFSET 13.0012 0 0
                CHANNELS 3 Zrotation Xrotation Yrotation
                JOINT RightForeArm
                {
                  OFFSET 28.7848 1.52588e-005 0
                  CHANNELS 3 Zrotation Xrotation Yrotation
                  JOINT RightHand
                  {
                    OFFSET 26.5688 1.52588e-005 0
                    CHANNELS 3 Zrotation Xrotation Yrotation
                    End Site
                    {
                      OFFSET 0 0 0
                    }
                  }
                }
              }
            }
            JOINT LeftShoulder
            {
              OFFSET 2.38034 -1.29275 -3.7523
              CHANNELS 3 Zrotation Xrotation Yrotation
              JOINT LeftArm
              {
                OFFSET 16.3182 6.10352e-005 0
                CHANNELS 3 Zrotation Xrotation Yrotation
                JOINT LeftForeArm
                {
                  OFFSET 27.0901 0 0
                  CHANNELS 3 Zrotation Xrotation Yrotation
                  JOINT LeftHand
                  {
                    OFFSET 24.5451 1.52588e-005 0
                    CHANNELS 3 Zrotation Xrotation Yrotation
                    End Site
                    {
                      OFFSET 0 0 0
                    }
                  }
                }
              }
            }
            JOINT Neck
            {
              OFFSET 5.0226 -0.0266342 0
              CHANNELS 3 Zrotation Xrotation Yrotation
              JOINT Head
              {
                OFFSET 6.69364 2.86102e-005 0
                CHANNELS 3 Zrotation Xrotation Yrotation
                End Site
                {
                  OFFSET 0 0 0
                }
              }
            }
          }
        }
      }
    }
  }
}
MOTION
Frames:	12
Frame Time:	0.0416667
260.595 74.7961 263.499 -51.7726 52.9543 -69.8006 -157.211 6.47809 139.784 -60.4168 -68.9333 -32.6319 -3.84149 -34.0357 -73.2398 -110.595 27.867 5.45439 -175.917 18.9256 126.909 105.539 78.7246 -163.453 68.0685 46.8333 142.853 2.47534 13.1079 -17.5298 2.04416 11.9975 -94.1885 2.89048 2.43589 -8.15759 -8.80437 2.07578 -8.25595 -31.1951 4.7693 -7.05754 -11.1824 4.7693 -7.05754 103.598 -14.2852 -78.1724 66.0626 -20.9166 -19.4507 -171.42 13.2692 -66.0324 29.9627 -6.24591 -27.5645 164.787 -32.7505 -47.5199 -6.61042 6.09094 -168.029 -176.856 -63.5814 -179.992 -0.555249 9.84538 154.948 22.6872 -2.37764 9.80239 23.7304 -8.55154 -11.875 
261.143 74.7817 264.022 -51.1662 52.8223 -69.565 -158.193 8.56532 140.796 -56.2998 -64.0413 -26.7383 -1.24188 -35.5073 -73.8626 -106.665 35.8952 2.05512 -175.243 18.2978 127.241 107.602 78.4961 -164.474 64.4477 44.7262 144.58 2.03716 12.9419 -16.57 2.11357 11.9437 -94.3036 2.99965 2.52544 -8.38683 -8.69652 2.15525 -8.48883 -31.0796 4.92314 -7.25007 -11.0669 4.92312 -7.25007 103.732 -13.9874 -77.7736 66.1717 -21.0217 -19.5159 -170.067 13.717 -66.4211 30.511 -6.26436 -27.2233 164.825 -32.5176 -47.6053 -6.62076 5.60908 -167.794 -177.304 -62.3007 -179.993 -0.347414 11.2317 155.424 22.6121 -2.48517 9.99771 23.8877 -8.71674 -11.826 
262.75 74.7396 265.549 -49.3911 52.4298 -68.8869 -161.643 14.8542 144.17 -51.1612 -44.0857 -16.9826 15.4069 -40.6047 -67.8294 -70.8352 57.0932 -25.908 -173.235 16.4951 128.229 114.02 77.6279 -167.477 55.2751 38.065 147.93 0.448947 12.4825 -13.5917 2.31453 11.778 -94.6379 3.33561 2.78256 -9.05582 -8.36466 2.38301 -9.16821 -30.724 5.36785 -7.81351 -10.7114 5.36785 -7.81353 104.108 -13.1127 -76.6263 66.4945 -21.301 -19.6689 -165.965 15.0219 -67.64 32.1742 -6.26487 -26.0675 164.916 -31.8947 -47.8417 -6.63889 4.14675 -167.089 -178.585 -59.7512 -179.993 0.0123437 14.1696 156.816 22.3686 -2.81139 10.5694 24.3423 -9.20557 -11.6803 
265.382 74.6746 268.043 -46.4963 51.7699 -67.814 -167.51 24.8397 150.087 -49.2448 1.97509 -14.6759 62.6589 -29.2515 -23.4624 37.6786 -4.82301 -83.8075 -169.737 13.5805 129.879 125.549 75.3186 -172.107 43.9049 26.3937 149.025 -2.96295 11.81 -8.58028 2.6367 11.4804 -95.1762 3.93928 3.18703 -10.144 -7.76829 2.73991 -10.2725 -30.0851 6.07759 -8.73501 -10.0725 6.07759 -8.73504 104.669 -11.6542 -74.8017 67.0572 -21.6624 -19.786 -158.787 17.1063 -69.9109 35.0309 -6.03252 -23.6126 165.006 -31.0565 -48.1827 -6.63139 1.60337 -165.856 179.567 -62.2388 -179.993 -0.479651 12.8705 159.399 21.8841 -3.39618 11.5083 25.0799 -10.0327 -11.4209 
269.045 74.6246 271.465 -42.5483 50.8225 -66.4007 -172.383 33.6162 159.162 -36.3953 40.6775 -29.1238 65.5627 3.54506 7.94535 89.5843 -7.40783 -0.726415 -163.908 9.13134 132.176 143.745 69.5487 -176.922 33.4006 9.74291 144.5 -8.4999 11.0175 -2.43953 3.06745 11.0137 -95.9013 4.88653 3.7095 -11.6321 -6.83243 3.1976 -11.7812 -29.0824 7.01776 -10.0065 -9.06977 7.01776 -10.0065 105.338 -9.54029 -72.3782 67.9492 -21.9472 -19.6419 -148.064 19.7145 -73.6112 38.9716 -5.06769 -19.0329 165.019 -30.2697 -48.5503 -6.54214 -2.16292 -163.928 -2.19256 -81.0223 -0.0213911 -4.83675 -19.6177 161.385 21.0102 -4.3383 12.811 26.1087 -11.2488 -11.0032 
273.752 74.6989 275.789 -37.6732 49.5608 -64.7136 179.87 42.3628 170.313 -17.1265 55.6036 -49.4278 58.6425 18.7199 20.7443 86.5283 3.64978 25.3445 -151.351 -0.420146 134.995 179.274 60.4788 179.939 26.7718 -9.96346 127.626 -15.3697 10.3039 3.09615 3.58663 10.3278 -96.7847 6.27758 4.30405 -13.4903 -5.45782 3.7118 -13.6621 -27.6092 8.13424 -11.6153 -7.5965 8.13424 -11.6153 105.995 -6.59427 -69.462 69.3374 -21.9194 -18.8995 -133.824 22.1757 -78.9986 43.2167 -2.65358 -11.6144 164.863 -29.8762 -48.8375 -6.27375 -7.11903 -160.988 -7.14414 16.0987 -0.0111225 -117.217 -66.2781 40.5163 19.5295 -5.8011 14.4628 27.461 -12.937 -10.3596 
279.481 75.0274 280.989 -32.0741 47.9564 -62.8377 164.018 51.7338 -175.859 -2.91013 65.4286 -64.0344 58.9359 27.9391 26.1942 74.7855 6.51428 39.4988 -150.615 3.79524 139.528 177.42 56.347 179.964 14.0213 -13.338 119.352 -22.086 10.0422 6.65993 4.16626 9.3338 -97.7843 8.28807 4.90184 -15.6705 -3.47007 4.21629 -15.8641 -25.4814 9.34504 -13.5386 -5.46871 9.34505 -13.5386 106.433 -2.48868 -66.3026 71.558 -21.0402 -16.8378 -117.534 23.5496 -85.5448 46.2182 1.46256 -1.65158 164.211 -30.5318 -48.9372 -5.73576 -12.4775 -156.334 -12.4199 51.1519 -0.029548 -101.995 -41.9857 32.189 16.9336 -8.14307 16.3081 29.2472 -15.2534 -9.35568 
286.168 75.762 286.995 -25.994 45.9785 -60.9001 137.422 57.8138 -155.821 13.0987 74.313 -79.6846 62.2805 33.728 28.0917 62.774 5.38068 49.0364 -150.276 8.29189 143.946 177.715 52.264 179.878 3.53417 -14.2882 110.645 -27.4765 10.4893 8.0526 4.72963 8.12203 -98.8206 10.7333 5.37112 -18.0271 -1.05383 4.58599 -18.236 -22.8792 10.4794 -15.6784 -2.86653 10.4794 -15.6784 106.505 3.03633 -62.7933 74.431 -19.8157 -14.1777 -101.851 23.329 -91.9372 46.8737 6.28159 9.18917 163.875 -31.2793 -48.8098 -4.96098 -17.1329 -150.721 -14.5088 49.1492 -0.0335102 -83.0689 -37.5555 39.1787 14.0572 -10.9675 18.543 31.1752 -17.9757 -8.2374 
294.06 76.3849 293.968 -19.6036 43.5846 -59.103 105.673 56.593 -133.187 40.8147 78.7196 -107.226 64.6337 35.9941 27.6907 53.6712 3.0504 55.1969 -151.077 13.3906 148.121 177.933 48.7172 179.809 -4.90782 -13.0625 103.496 -31.1818 11.5345 7.88963 5.7005 6.469 -99.7278 14.142 6.55855 -20.3984 2.3244 5.67399 -20.6516 -19.3309 12.2985 -17.6307 0.68175 12.2985 -17.6307 106.827 9.2891 -55.2074 77.4155 -17.9301 -11.2129 -88.7954 22.2253 -96.9045 45.6746 10.3984 19.003 161.13 -28.3024 -51.8734 -5.30853 -11.2559 -143.646 -15.9406 51.1306 -0.0377029 -78.2687 -34.7921 39.3167 12.317 -16.1985 19.9047 33.4314 -22.3051 -5.56162 
302.989 76.6948 301.807 -12.9506 40.7306 -57.7034 80.3417 50.2337 -121.129 70.2036 82.0596 -134.745 67.7246 34.1511 25.2875 47.8119 0.997235 59.1632 -152.962 18.7038 151.845 178.096 45.7576 179.749 -11.6964 -10.5183 98.2251 -33.3887 12.8703 6.86885 6.40742 4.67131 -100.383 17.8401 7.21773 -22.3942 5.99276 6.25096 -22.6694 -15.4812 13.4989 -19.3836 4.53145 13.4989 -19.3836 105.688 16.8518 -48.9981 80.8357 -15.2945 -7.40011 -78.603 20.5134 -100.336 43.7075 13.2772 26.8664 159.426 -26.2011 -53.8025 -6.12357 -8.06755 -136.292 -15.8561 49.5927 -0.977955 -77.9959 -33.1419 37.4984 10.0988 -20.9875 21.3022 35.6694 -26.2032 -3.3191 
312.383 77.1356 310.124 -6.11182 37.4504 -56.889 63.3774 44.6367 -121.673 161.041 85.8374 141.453 73.3351 28.0759 21.0598 44.3662 -0.422805 61.8746 -155.948 24.0256 154.988 178.212 43.2772 179.698 -17.1735 -7.37179 94.5156 -34.4756 14.2189 5.49534 7.30258 2.02135 -100.166 23.2485 8.45585 -23.0785 11.3951 7.46042 -23.4026 -10.0899 14.8793 -19.689 9.92276 14.8793 -19.689 103.695 24.1749 -41.8172 84.36 -7.43213 0.761917 -70.4624 19.1545 -102.667 41.7761 15.1101 32.7314 145.613 -24.9624 -62.0124 -12.5588 17.1888 -122.252 -16.1218 60.0207 -3.08415 -78.071 -31.8145 35.8159 6.43265 -29.3666 16.6169 39.5986 -31.16 1.61583 
321.983 77.4918 318.738 0.562274 33.9925 -56.5944 54.1318 42.272 -129.053 -132.938 79.8116 90.1926 78.2161 17.5573 15.5181 42.4274 -1.30468 63.8862 -159.495 28.9921 157.421 178.303 41.2711 179.659 -21.7321 -4.09359 92.0673 -34.8234 15.4163 4.07049 8.41745 -0.972424 -99.0072 29.7214 10.3341 -22.6305 17.8876 9.35517 -23.034 -3.81596 16.5506 -18.6874 16.1967 16.5506 -18.6874 98.1973 35.4645 -34.6894 86.6364 6.45381 14.4833 -63.5853 17.8407 -104.411 40.1079 16.223 36.9851 123.417 -22.7137 -73.352 -40.2075 33.9611 -82.3751 -21.9552 74.4763 0.115977 -78.09 -30.7304 34.4727 0.403094 -40.1596 8.363 45.5628 -37.0683 9.1492 
